<svg width="115" height="25" viewBox="0 0 115 25" fill="none" xmlns="http://www.w3.org/2000/svg">
<rect width="115" height="25" fill="white"/>
<path d="M11.7794 4.308L11.6354 5.796L8.94744 5.652H7.38744L7.31544 14.7L7.38744 19.5H5.44344L5.58744 14.868L5.46744 5.652H3.90744L1.17144 5.796L1.05144 5.604L1.19544 4.116H11.6354L11.7794 4.308ZM22.4486 19.5H20.6486L20.3606 18.204L19.7366 16.428L16.8806 16.404L14.3366 16.428L13.6886 18.108L13.3526 19.5H11.5766L16.1846 7.548H18.2486L22.4486 19.5ZM19.2326 14.964L17.2406 9.3H17.0966L14.9126 14.964L17.0246 14.988L19.2326 14.964ZM35.3298 15.924L35.3538 19.5H33.4338L27.1458 10.38H27.0258L27.0018 15.516L27.0498 19.5H25.4178L25.4898 15.972L25.4418 7.548H27.3378L33.6258 16.668H33.7938L33.7458 7.62L35.4018 7.5L35.3298 15.924ZM50.8987 19.5H48.9307L48.5707 17.964L47.7067 15.324L44.2507 15.252L41.1307 15.324L40.1947 17.868L39.8107 19.5H37.8907L43.5307 4.116H45.7627L50.8987 19.5ZM47.1787 13.692L44.6827 6.108H44.5147L41.7307 13.692L44.4187 13.74L47.1787 13.692ZM62.9017 19.5H61.1017L60.8137 18.204L60.1897 16.428L57.3337 16.404L54.7897 16.428L54.1417 18.108L53.8057 19.5H52.0297L56.6377 7.548H58.7017L62.9017 19.5ZM59.6857 14.964L57.6937 9.3H57.5497L55.3657 14.964L57.4777 14.988L59.6857 14.964ZM75.8069 15.756L75.8549 19.5H74.0789L74.1509 15.9L74.1269 14.268L67.6229 14.292L67.5989 15.756L67.6469 19.5H65.8709L65.9429 15.9L65.8709 7.548H67.6709L67.6229 12.684L70.8629 12.708L74.1269 12.684L74.0789 7.548H75.8789L75.8069 15.756ZM89.4798 19.5H87.6798L87.3918 18.204L86.7678 16.428L83.9118 16.404L81.3678 16.428L80.7198 18.108L80.3838 19.5H78.6078L83.2158 7.548H85.2798L89.4798 19.5ZM86.2638 14.964L84.2718 9.3H84.1278L81.9438 14.964L84.0558 14.988L86.2638 14.964ZM97.9451 14.676C98.9211 16.164 100.001 17.628 101.185 19.068L101.161 19.308C100.489 19.516 99.9371 19.636 99.5051 19.668L99.1931 19.476C97.9771 17.636 97.0571 16.188 96.4331 15.132L94.1771 15.156V15.756L94.2251 19.5H92.4491L92.5211 15.9L92.4491 7.548L96.5291 7.524C97.7931 7.524 98.7611 7.82 99.4331 8.412C100.121 9.004 100.465 9.86 100.465 10.98C100.465 11.796 100.241 12.524 99.7931 13.164C99.3611 13.804 98.7451 14.308 97.9451 14.676ZM94.2011 13.668L96.4571 13.74C97.8811 13.34 98.5931 12.468 98.5931 11.124C98.5931 10.42 98.3851 9.892 97.9691 9.54C97.5531 9.188 96.9211 8.996 96.0731 8.964L94.2251 8.988L94.2011 13.668ZM113.667 19.5H111.867L111.579 18.204L110.955 16.428L108.099 16.404L105.555 16.428L104.907 18.108L104.571 19.5H102.795L107.403 7.548H109.467L113.667 19.5ZM110.451 14.964L108.459 9.3H108.315L106.131 14.964L108.243 14.988L110.451 14.964Z" fill="black"/>
</svg>
